<svg xmlns="http://www.w3.org/2000/svg" version="1.0" width="86" height="26" viewBox="0 0 515.000000 120.000000" preserveAspectRatio="xMidYMid meet">

<g transform="translate(0.000000,120.000000) scale(0.100000,-0.100000)" fill="#000000" stroke="none">
<path d="M491 1169 c-157 -26 -284 -140 -341 -304 -25 -74 -36 -160 -22 -169 7 -4 -9 -38 -44 -91 -31 -47 -54 -93 -52 -102 2 -9 17 -24 33 -33 26 -15 30 -23 28 -54 -2 -31 1 -36 20 -36 21 -1 21 -1 3 -15 -18 -14 -18 -16 -3 -32 12 -14 14 -31 10 -78 -5 -52 -3 -62 16 -79 18 -17 32 -18 110 -13 101 6 106 4 116 -58 3 -22 8 -50 11 -62 l4 -23 280 0 279 0 -19 43 c-53 120 -46 269 16 355 131 180 149 228 141 365 -4 76 -10 99 -41 162 -89 181 -295 265 -545 224z m193 -97 c6 -3 23 -5 37 -4 15 2 34 -4 44 -15 10 -10 28 -16 39 -15 13 2 32 -8 46 -23 13 -14 29 -25 36 -25 7 0 18 -9 24 -20 6 -11 8 -20 6 -20 -3 0 6 -11 20 -25 14 -14 23 -32 20 -40 -3 -8 4 -34 14 -57 28 -61 26 -119 -5 -156 -14 -17 -25 -38 -25 -49 0 -36 -29 -65 -63 -61 -25 2 -32 -1 -35 -17 -10 -54 -76 -82 -118 -50 -26 20 -34 19 -34 -4 0 -73 -40 -68 -63 8 -22 70 -37 86 -101 105 -60 18 -76 32 -76 66 0 26 -4 28 -62 40 -78 15 -98 25 -98 50 0 11 -4 20 -10 20 -5 0 -17 11 -26 25 -14 22 -15 32 -5 65 6 21 22 47 34 57 13 10 26 26 30 36 4 9 15 20 24 24 10 4 28 17 40 30 16 17 33 23 63 23 22 0 40 4 40 8 0 17 44 28 118 29 42 1 81 -1 86 -5z"/>
<path d="M2787 919 c-202 -29 -327 -214 -296 -436 24 -170 121 -275 279 -303 114 -20 241 13 304 79 l28 30 -26 26 -27 27 -32 -22 c-59 -39 -101 -53 -167 -53 -160 -1 -254 104 -255 283 0 98 20 154 76 209 50 51 102 71 185 71 61 0 80 -5 134 -32 l62 -33 24 30 c13 17 24 32 24 35 0 10 -97 69 -130 78 -55 16 -120 20 -183 11z"/>
<path d="M1348 914 c-5 -4 -8 -171 -8 -371 l0 -363 55 0 55 0 0 155 0 155 38 0 c21 0 47 -7 59 -15 12 -9 66 -75 118 -148 53 -73 103 -136 111 -140 8 -4 37 -7 64 -5 l51 3 -116 158 c-64 87 -115 160 -113 161 2 1 17 8 34 15 44 17 101 76 115 118 6 19 9 63 7 97 -5 80 -32 120 -107 154 -50 23 -71 26 -206 30 -82 2 -153 1 -157 -4z m308 -100 c88 -42 84 -183 -6 -229 -17 -9 -69 -19 -116 -22 l-84 -6 0 137 0 136 86 0 c59 0 97 -5 120 -16z"/>
<path d="M2073 685 c-61 -31 -95 -72 -119 -144 -31 -96 0 -242 64 -304 82 -79 257 -81 357 -4 17 13 18 18 6 41 -17 32 -28 32 -83 4 -58 -31 -145 -32 -184 -2 -44 33 -66 68 -71 118 l-6 46 183 0 183 0 -5 65 c-8 90 -41 145 -110 179 -70 35 -145 35 -215 1z m204 -89 c22 -24 33 -46 33 -66 l0 -30 -136 0 -135 0 6 23 c24 80 80 121 155 114 35 -4 51 -13 77 -41z"/>
<path d="M3332 697 c-98 -36 -155 -130 -154 -256 1 -170 88 -264 246 -264 158 0 247 99 246 272 -1 116 -46 196 -134 237 -57 27 -147 31 -204 11z m179 -94 c43 -37 59 -80 59 -161 0 -50 -6 -79 -22 -112 -55 -108 -198 -105 -252 4 -28 57 -26 167 2 223 27 53 62 72 129 73 42 0 58 -5 84 -27z"/>
<path d="M4373 685 c-61 -31 -95 -72 -119 -144 -31 -96 0 -242 64 -304 82 -79 257 -81 357 -4 17 13 18 18 6 41 -17 32 -28 32 -83 4 -58 -31 -145 -32 -184 -2 -44 33 -66 68 -71 118 l-6 46 183 0 183 0 -5 65 c-8 90 -41 145 -110 179 -70 35 -145 35 -215 1z m204 -89 c22 -24 33 -46 33 -66 l0 -30 -136 0 -135 0 6 23 c24 80 80 121 155 114 35 -4 51 -13 77 -41z"/>
<path d="M4983 691 c-17 -11 -42 -34 -55 -51 l-23 -32 -5 44 c-5 43 -5 43 -47 46 l-43 3 0 -260 0 -261 50 0 50 0 0 169 c0 158 1 170 23 202 32 49 81 71 138 64 l47 -7 7 42 c5 31 4 45 -6 51 -25 16 -103 10 -136 -10z"/>
<path d="M3715 663 c9 -21 57 -138 107 -261 l91 -223 44 3 45 3 104 254 c57 140 104 256 104 258 0 10 -89 1 -97 -9 -6 -7 -43 -97 -84 -199 l-73 -187 -18 52 c-9 28 -43 116 -75 196 l-58 145 -53 3 -53 3 16 -38z"/>
</g>
</svg>